<svg id="visual" viewBox="0 0 900 600" width="900" height="600" xmlns="http://www.w3.org/2000/svg" xmlns:xlink="http://www.w3.org/1999/xlink" version="1.1"><path d="M0 91L30 92C60 93 120 95 180 95C240 95 300 93 360 90C420 87 480 83 540 83C600 83 660 87 720 89C780 91 840 91 870 91L900 91L900 0L870 0C840 0 780 0 720 0C660 0 600 0 540 0C480 0 420 0 360 0C300 0 240 0 180 0C120 0 60 0 30 0L0 0Z" fill="#ffa35e"></path><path d="M0 145L30 147C60 149 120 153 180 159C240 165 300 173 360 174C420 175 480 169 540 169C600 169 660 175 720 176C780 177 840 173 870 171L900 169L900 89L870 89C840 89 780 89 720 87C660 85 600 81 540 81C480 81 420 85 360 88C300 91 240 93 180 93C120 93 60 91 30 90L0 89Z" fill="#fc8e3b"></path><path d="M0 277L30 289C60 301 120 325 180 345C240 365 300 381 360 389C420 397 480 397 540 389C600 381 660 365 720 351C780 337 840 325 870 319L900 313L900 167L870 169C840 171 780 175 720 174C660 173 600 167 540 167C480 167 420 173 360 172C300 171 240 163 180 157C120 151 60 147 30 145L0 143Z" fill="#f7770f"></path><path d="M0 403L30 408C60 413 120 423 180 436C240 449 300 465 360 472C420 479 480 477 540 472C600 467 660 459 720 454C780 449 840 447 870 446L900 445L900 311L870 317C840 323 780 335 720 349C660 363 600 379 540 387C480 395 420 395 360 387C300 379 240 363 180 343C120 323 60 299 30 287L0 275Z" fill="#d5670f"></path><path d="M0 601L30 601C60 601 120 601 180 601C240 601 300 601 360 601C420 601 480 601 540 601C600 601 660 601 720 601C780 601 840 601 870 601L900 601L900 443L870 444C840 445 780 447 720 452C660 457 600 465 540 470C480 475 420 477 360 470C300 463 240 447 180 434C120 421 60 411 30 406L0 401Z" fill="#b5580e"></path></svg>